<?xml version="1.0" encoding="utf-8"?>
<!-- Generator: Adobe Illustrator 21.0.0, SVG Export Plug-In . SVG Version: 6.00 Build 0)  -->
<svg version="1.1" id="Layer_1" xmlns="http://www.w3.org/2000/svg" xmlns:xlink="http://www.w3.org/1999/xlink" x="0px" y="0px"
	 viewBox="0 0 100 100" style="enable-background:new 0 0 100 100;" xml:space="preserve">
<style type="text/css">
	.st0{fill:#E84E0F;}
	.st1{enable-background:new    ;}
	.st2{fill:#FFFFFF;}
	.st3{display:none;}
</style>
<g transform="translate(5151.991 1190.671)">
	<g transform="translate(-9 -3)">
		<path class="st0" d="M64.7,42.3c3.2,0.6,5.2,3.7,4.6,6.9s-3.7,5.2-6.9,4.6c-3.2-0.6-5.2-3.7-4.6-6.9
			C58.4,43.7,61.4,41.7,64.7,42.3C64.6,42.3,64.6,42.3,64.7,42.3"/>
		<path class="st0" d="M51.2,49.4c1.8,0.4,3,2.2,2.7,4.1c-0.4,1.9-2.2,3-4.1,2.7c-1.9-0.4-3.1-2.2-2.7-4.1
			C47.5,50.2,49.3,49,51.2,49.4L51.2,49.4"/>
		<path class="st0" d="M54.5,36.9c1.3,0.3,2.1,1.5,1.8,2.8s-1.5,2.1-2.8,1.8s-2.1-1.5-1.8-2.8C52,37.5,53.2,36.6,54.5,36.9
			L54.5,36.9"/>
		<path class="st0" d="M47.2,26c2.4,1.8,2.8,5.2,1,7.6c-1.8,2.4-5.2,2.8-7.6,1c-2.4-1.8-2.8-5.2-1-7.6l0,0
			C41.4,24.6,44.8,24.2,47.2,26L47.2,26"/>
		<path class="st0" d="M40.7,52.5c2,2.1,1.9,5.3-0.2,7.3c-2.1,2-5.3,1.9-7.3-0.2c-2-2.1-1.9-5.3,0.2-7.3
			C35.4,50.4,38.7,50.4,40.7,52.5"/>
	</g>
	<text transform="matrix(1 0 0 1 20.0996 72.6849)" class="st2" style="font-family:'Netto'; font-size:14px;">GraphDB</text>
</g>
<g id="ZUQScE.tif" class="st3">

		<image style="display:inline;overflow:visible;enable-background:new    ;" width="44" height="55" id="Layer_0" xlink:href="FEBD255B684CDFDF.png"  transform="matrix(1.8499 0 0 1.8499 -138.0749 -17.2409)">
	</image>
</g>
<g>
	<g fill="var(--logo-color)">
		<path class="st0" d="M67.9,33.2c4.9,1,8.1,5.8,7.1,10.8c-1,4.9-5.8,8.1-10.8,7.1c-4.9-1-8.1-5.8-7.1-10.7
			c0.9-4.9,5.7-8.2,10.6-7.2C67.8,33.2,67.9,33.2,67.9,33.2"/>
		<path class="st0" d="M49.1,47.7c2.9,0.6,4.7,3.4,4.3,6.3c-0.6,2.9-3.4,4.7-6.3,4.2c-2.9-0.6-4.8-3.4-4.3-6.3
			C43.3,49,46.2,47.1,49.1,47.7"/>
		<path class="st0" d="M56.5,21.9c2,0.4,3.3,2.3,2.9,4.3S57,29.5,55,29.1c-2-0.4-3.3-2.3-2.9-4.3c0,0,0,0,0,0
			C52.6,22.8,54.5,21.5,56.5,21.9C56.5,21.9,56.5,21.9,56.5,21.9"/>
		<path class="st0" d="M50,2.9c3.7,2.9,4.4,8.2,1.6,11.9c-2.9,3.7-8.2,4.4-11.9,1.6c-3.7-2.9-4.4-8.2-1.6-11.9C41,0.8,46.3,0,50,2.9
			C50,2.9,50,2.9,50,2.9"/>
		<path class="st0" d="M36.6,58.3c3.1,3.2,3,8.3-0.2,11.4c-3.2,3.1-8.3,3-11.4-0.2c-3.1-3.2-3-8.3,0.2-11.4c0,0,0,0,0,0
			C28.5,55,33.5,55.1,36.6,58.3"/>
	</g>
	<g fill="var(--logo-text-color)">
		<path class="st2" d="M16.5,85.7h-3c-0.2,0-0.5-0.1-0.6-0.2c-0.2-0.2-0.3-0.4-0.3-0.6s0.1-0.5,0.3-0.6c0.2-0.2,0.4-0.3,0.6-0.3h3.6
			c0.3,0,0.6,0.1,0.8,0.4c0.2,0.2,0.4,0.5,0.4,0.9V92c0,0.2-0.1,0.5-0.2,0.7c-0.1,0.2-0.3,0.4-0.5,0.5c-0.6,0.3-1.3,0.5-2.1,0.6
			C14.8,93.9,14,94,13.2,94c-1.9,0-3.4-0.6-4.6-1.7c-1.1-1.2-1.7-2.7-1.7-4.6v-6.2c0-1.9,0.6-3.4,1.7-4.6c1.1-1.1,2.7-1.7,4.6-1.7
			c0.7,0,1.4,0.1,2.1,0.3c0.7,0.2,1.4,0.5,2,0.8c0.1,0.1,0.2,0.2,0.3,0.3c0.1,0.1,0.1,0.3,0.1,0.4c0,0.2-0.1,0.4-0.2,0.6
			c-0.2,0.2-0.4,0.2-0.6,0.2c-0.2,0-0.3,0-0.5-0.1c-0.4-0.2-0.9-0.4-1.4-0.6c-0.6-0.2-1.1-0.3-1.7-0.3c-1.4,0-2.5,0.4-3.3,1.2
			c-0.8,0.8-1.2,1.9-1.2,3.3v6.4c0,1.4,0.4,2.5,1.2,3.3c0.8,0.8,1.9,1.2,3.3,1.2c0.6,0,1.1-0.1,1.7-0.2c0.6-0.1,1.1-0.2,1.6-0.4
			V85.7z"/>
		<path class="st2" d="M21.7,84c0-0.5,0.1-1,0.3-1.5c0.2-0.4,0.4-0.8,0.7-1.1c0.3-0.3,0.7-0.6,1.1-0.7c0.4-0.2,0.9-0.3,1.3-0.3
			c0.6,0,1.2,0.1,1.9,0.2c0.2,0,0.4,0.1,0.5,0.3c0.1,0.2,0.2,0.4,0.2,0.5c0,0.2-0.1,0.4-0.3,0.6s-0.4,0.2-0.6,0.2
			c-0.1,0-0.1,0-0.2,0c-0.1,0-0.1,0-0.2-0.1c-0.2,0-0.4-0.1-0.6-0.1c-0.2,0-0.4,0-0.6,0c-0.5,0-0.8,0.2-1.2,0.5
			c-0.3,0.3-0.5,0.8-0.5,1.3v9.2c0,0.2-0.1,0.5-0.3,0.6c-0.2,0.2-0.4,0.3-0.6,0.3c-0.2,0-0.5-0.1-0.6-0.3c-0.2-0.2-0.3-0.4-0.3-0.6
			V84z"/>
		<path class="st2" d="M38.5,92.2c0,0.3-0.1,0.5-0.2,0.7c-0.2,0.2-0.4,0.4-0.6,0.4c-0.6,0.2-1.3,0.4-1.9,0.5c-0.7,0.1-1.3,0.2-2,0.2
			c-1.6,0-2.8-0.4-3.6-1.1C29.4,92.2,29,91.2,29,90c0-1.2,0.4-2.2,1.1-2.9c0.4-0.4,0.9-0.6,1.5-0.8c0.6-0.2,1.3-0.2,2.1-0.2h3v-1.6
			c0-0.8-0.3-1.4-0.8-1.8c-0.5-0.4-1.2-0.6-2-0.6c-0.5,0-1,0.1-1.5,0.2c-0.5,0.1-1,0.4-1.5,0.7c-0.1,0.1-0.3,0.1-0.4,0.1
			c-0.2,0-0.5-0.1-0.6-0.2c-0.2-0.1-0.3-0.4-0.3-0.6c0-0.3,0.1-0.6,0.4-0.8c0.6-0.4,1.2-0.7,1.9-0.8c0.7-0.2,1.3-0.2,2-0.2
			c0.6,0,1.2,0.1,1.7,0.2c0.5,0.2,1,0.4,1.4,0.7c0.4,0.3,0.7,0.7,1,1.2c0.2,0.5,0.4,1.1,0.4,1.7V92.2z M36.8,87.7h-3
			c-0.7,0-1.2,0.1-1.6,0.2c-0.4,0.1-0.7,0.3-0.9,0.5c-0.2,0.2-0.3,0.5-0.4,0.7c-0.1,0.3-0.1,0.5-0.1,0.8s0,0.5,0.1,0.8
			c0.1,0.3,0.2,0.5,0.4,0.8c0.2,0.2,0.5,0.4,0.9,0.6c0.4,0.1,0.9,0.2,1.6,0.2c1,0,2-0.1,3-0.4V87.7z"/>
		<path class="st2" d="M41.9,82.2c0-0.3,0.1-0.5,0.2-0.7c0.2-0.2,0.4-0.4,0.6-0.4c1.2-0.4,2.5-0.7,3.9-0.7c0.7,0,1.4,0.1,1.9,0.4
			c0.6,0.2,1.1,0.6,1.5,1c0.4,0.4,0.7,0.9,1,1.5c0.2,0.6,0.3,1.2,0.3,1.9v4c0,0.7-0.1,1.4-0.3,1.9c-0.2,0.6-0.5,1.1-1,1.5
			c-0.4,0.4-0.9,0.7-1.5,1C48,93.9,47.4,94,46.7,94c-0.5,0-1.1-0.1-1.6-0.2c-0.5-0.1-1-0.3-1.4-0.6v5.4c0,0.2-0.1,0.5-0.3,0.6
			c-0.2,0.2-0.4,0.3-0.6,0.3c-0.2,0-0.5-0.1-0.6-0.3c-0.2-0.2-0.3-0.4-0.3-0.6V82.2z M49.6,85.1c0-0.9-0.3-1.7-0.8-2.2
			c-0.5-0.5-1.2-0.8-2.2-0.8c-1,0-2,0.1-3,0.4v8.8c0.4,0.4,0.9,0.7,1.4,0.8c0.5,0.2,1.1,0.2,1.6,0.2c0.9,0,1.7-0.3,2.2-0.8
			c0.5-0.5,0.8-1.3,0.8-2.2V85.1z"/>
		<path class="st2" d="M62.5,85.1c0-0.9-0.3-1.7-0.8-2.2c-0.5-0.5-1.2-0.8-2.2-0.8c-1.2,0-2.2,0.4-3,1.2v9.9c0,0.2-0.1,0.5-0.3,0.6
			c-0.2,0.2-0.4,0.3-0.6,0.3c-0.2,0-0.5-0.1-0.6-0.3c-0.2-0.2-0.3-0.4-0.3-0.6v-17c0-0.2,0.1-0.5,0.3-0.6c0.2-0.2,0.4-0.3,0.6-0.3
			c0.2,0,0.5,0.1,0.6,0.3c0.2,0.2,0.3,0.4,0.3,0.6v5.1c0.5-0.2,0.9-0.4,1.4-0.6c0.5-0.1,1-0.2,1.6-0.2c0.7,0,1.4,0.1,1.9,0.4
			c0.6,0.2,1.1,0.6,1.5,1c0.4,0.4,0.7,0.9,1,1.5c0.2,0.6,0.3,1.2,0.3,1.9v7.9c0,0.2-0.1,0.5-0.3,0.6c-0.2,0.2-0.4,0.3-0.6,0.3
			s-0.5-0.1-0.6-0.3c-0.2-0.2-0.3-0.4-0.3-0.6V85.1z"/>
		<path class="st2" d="M68.9,93.7c-0.3,0-0.6-0.1-0.9-0.4c-0.2-0.2-0.4-0.5-0.4-0.9V76.7c0-0.3,0.1-0.6,0.4-0.9
			c0.2-0.2,0.5-0.4,0.9-0.4h3.4c2,0,3.6,0.6,4.9,1.8c0.6,0.6,1.1,1.3,1.4,2.1c0.3,0.8,0.5,1.7,0.5,2.7v5c0,1-0.2,1.9-0.5,2.7
			c-0.3,0.8-0.8,1.5-1.4,2.1c-1.2,1.2-2.9,1.8-4.9,1.8H68.9z M77.2,82.1c0-1.5-0.4-2.7-1.3-3.6c-0.9-0.9-2.1-1.3-3.6-1.3h-2.8V92
			h2.8c1.5,0,2.7-0.4,3.6-1.3c0.9-0.9,1.3-2.1,1.3-3.6V82.1z"/>
		<path class="st2" d="M83.6,93.7c-0.3,0-0.6-0.1-0.9-0.4c-0.2-0.2-0.4-0.5-0.4-0.9V76.7c0-0.3,0.1-0.6,0.4-0.9
			c0.2-0.2,0.5-0.4,0.9-0.4h4c0.7,0,1.4,0.1,2,0.3c0.6,0.2,1.1,0.5,1.5,1c0.4,0.4,0.8,0.9,1,1.5c0.2,0.6,0.4,1.3,0.4,2
			c0,0.8-0.2,1.5-0.6,2.2c-0.4,0.7-0.9,1.2-1.5,1.7c0.8,0.5,1.4,1.1,1.9,1.8c0.5,0.8,0.7,1.6,0.7,2.6c0,0.8-0.1,1.5-0.4,2.2
			c-0.3,0.6-0.6,1.2-1.1,1.6c-0.5,0.4-1,0.8-1.7,1c-0.6,0.2-1.4,0.4-2.1,0.4H83.6z M87.2,83.4c0.5,0,0.9-0.1,1.4-0.2
			c0.4-0.2,0.8-0.4,1.1-0.7c0.3-0.3,0.6-0.6,0.7-1c0.2-0.4,0.3-0.8,0.3-1.2c0-1-0.3-1.8-0.8-2.3c-0.5-0.5-1.3-0.8-2.3-0.8h-3.4v6.2
			H87.2z M87.8,92c1,0,1.8-0.3,2.5-0.8c0.6-0.6,0.9-1.4,0.9-2.6c0-0.5-0.1-0.9-0.3-1.3c-0.2-0.4-0.5-0.8-0.8-1.1
			c-0.3-0.3-0.7-0.6-1.2-0.7c-0.5-0.2-1-0.3-1.5-0.3h-3.2V92H87.8z"/>
	</g>
</g>
</svg>
