<?xml version="1.0" encoding="utf-8"?>
<!-- Generator: Adobe Illustrator 15.0.0, SVG Export Plug-In . SVG Version: 6.00 Build 0)  -->
<!DOCTYPE svg PUBLIC "-//W3C//DTD SVG 1.1//EN" "http://www.w3.org/Graphics/SVG/1.1/DTD/svg11.dtd">
<svg version="1.1" id="Layer_1" xmlns="http://www.w3.org/2000/svg" xmlns:xlink="http://www.w3.org/1999/xlink" x="0px" y="0px"
	 width="100px" height="100px" viewBox="184 224 100 100" enable-background="new 199.13 227.965 524 104"
	 xml:space="preserve">

	<path fill="#E84E0F" d="M257.183,270.272c5.665,1.141,9.35,6.691,8.209,12.356c-1.143,5.66-6.689,9.341-12.351,8.199
		c-5.664-1.142-9.353-6.683-8.21-12.346C245.976,272.816,251.523,269.127,257.183,270.272"/>
	<path fill="#E84E0F" d="M233.855,288.523c3.347,0.677,5.53,3.953,4.853,7.309c-0.672,3.34-3.957,5.52-7.301,4.848
		c-3.353-0.676-5.529-3.954-4.857-7.302C227.226,290.022,230.504,287.85,233.855,288.523"/>
	<path fill="#E84E0F" d="M242.877,255.706c2.288,0.462,3.774,2.692,3.313,4.978c-0.46,2.29-2.695,3.779-4.982,3.313
		c-2.286-0.457-3.773-2.697-3.313-4.989C238.356,256.727,240.593,255.245,242.877,255.706"/>
	<path fill="#E84E0F" d="M234.699,231.969c4.287,3.282,5.107,9.447,1.816,13.735c-3.276,4.28-9.44,5.091-13.729,1.806
		c-4.275-3.274-5.095-9.445-1.813-13.719C224.254,229.502,230.423,228.69,234.699,231.969"/>
	<path fill="#E84E0F" d="M217.591,301.536c3.548,3.693,3.436,9.595-0.269,13.146c-3.685,3.544-9.588,3.425-13.14-0.269
		c-3.555-3.698-3.428-9.595,0.264-13.145C208.144,297.724,214.044,297.831,217.591,301.536"/>

</svg>
