<?xml version="1.0" encoding="utf-8"?>
<!DOCTYPE svg PUBLIC "-//W3C//DTD SVG 1.1//EN" "http://www.w3.org/Graphics/SVG/1.1/DTD/svg11.ddt">
<svg
   xmlns:dc="http://purl.org/dc/elements/1.1/"
   xmlns:cc="http://creativecommons.org/ns#"
   xmlns:rdf="http://www.w3.org/1999/02/22-rdf-syntax-ns#"
   xmlns:svg="http://www.w3.org/2000/svg"
   xmlns="http://www.w3.org/2000/svg"
   xmlns:xlink="http://www.w3.org/1999/xlink"
   xmlns:sodipodi="http://sodipodi.sourceforge.net/DTD/sodipodi-0.dtd"
   xmlns:inkscape="http://www.inkscape.org/namespaces/inkscape"
   width="10%" 
   height="10%"
   preserveAspectRatio="xMinYMin"
   viewBox="0 0 50 50"
   id="svg2"
   version="1.1"
   inkscape:version="0.48.0 r9654"
   sodipodi:docname="namesvg.svg">
		<script type="text/ecmascript" xlink:href="smil.user.js"/>
		<circle cx="22.5" cy="8.5" r="1.5" fill="#000" ></circle>
		<circle cx="21.5" cy="7.5" r="1.5" fill="#ff3900" ></circle>
		<circle cx="32" cy="11" r="4" fill="#000" ></circle>
		<circle cx="31" cy="10" r="4" fill="#ff3900" ></circle>
		<circle cx="38" cy="16" r="2" fill="#000" ></circle>
		<circle cx="37" cy="15" r="2" fill="#ff3900" ></circle>
		<circle cx="41.5" cy="24.5" r="4.5" fill="#000" ></circle>
		<circle cx="40.5" cy="23.5" r="4.5" fill="#ff3900" ></circle>
		<circle cx="40" cy="34" r="3" fill="#000" ></circle>
		<circle cx="39" cy="33" r="3" fill="#ff3900" ></circle>
		<circle cx="35.5" cy="39.5" r="1.5" fill="#000" ></circle>
		<circle cx="34.5" cy="38.5" r="1.5" fill="#ff3900" ></circle>
		<circle cx="30" cy="43" r="2" fill="#000" ></circle>
		<circle cx="29" cy="42" r="2" fill="#ff3900" ></circle>
		<circle cx="22.5" cy="43.5" r="2.5" fill="#000" ></circle>
		<circle cx="21.5" cy="42.5" r="2.5" fill="#ff3900" ></circle>
		<circle cx="13" cy="40" r="4" fill="#000" ></circle>
		<circle cx="12" cy="39" r="4" fill="#ff3900" ></circle>
		<circle cx="8" cy="33" r="2" fill="#000" ></circle>
		<circle cx="7" cy="32" r="2" fill="#ff3900" ></circle>
		<circle cx="6.5" cy="26.5" r="2.5" fill="#000" ></circle>
		<circle cx="5.5" cy="25.5" r="2.5" fill="#ff3900" ></circle>
		<circle cx="9" cy="17" r="4" fill="#000" ></circle>
		<circle cx="8" cy="16" r="4" fill="#ff3900" ></circle>
		<circle cx="15" cy="11" r="3" fill="#000" ></circle>
		<circle cx="14" cy="10" r="3" fill="#ff3900" ></circle>
	</svg>