<?xml version="1.0" encoding="utf-8"?>
<!-- Generator: Adobe Illustrator 21.0.0, SVG Export Plug-In . SVG Version: 6.00 Build 0)  -->
<svg version="1.1" id="Layer_1" xmlns="http://www.w3.org/2000/svg" xmlns:xlink="http://www.w3.org/1999/xlink" x="0px" y="0px"
	 viewBox="0 0 241.3 67.2" style="enable-background:new 0 0 241.3 67.2;" xml:space="preserve">
<style type="text/css">
	.st0{fill:#E84E0F;}
	.st1{fill:#FFFFFF;}
</style>
<g fill="var(--logo-color)">
	<path class="st0" d="M39.3,27.8c4.3,0.9,7,5,6.1,9.3c-0.9,4.3-5,7-9.3,6.1c-4.2-0.9-7-5-6.2-9.2c0.8-4.2,4.9-7,9.1-6.2
		C39.2,27.7,39.2,27.7,39.3,27.8"/>
	<path class="st0" d="M23,40.3c2.5,0.6,4.1,3,3.7,5.5c-0.5,2.5-3,4.1-5.5,3.6c-2.5-0.5-4.1-2.9-3.7-5.5C18.1,41.4,20.5,39.8,23,40.3
		"/>
	<path class="st0" d="M29.4,18c1.7,0.4,2.8,2,2.5,3.7c-0.4,1.7-2,2.8-3.7,2.5c-1.7-0.4-2.8-2-2.5-3.7c0,0,0,0,0,0
		C26,18.8,27.7,17.7,29.4,18C29.4,18,29.4,18,29.4,18"/>
	<path class="st0" d="M23.9,1.6c3.2,2.5,3.8,7,1.3,10.3s-7,3.8-10.3,1.3c-3.2-2.5-3.8-7-1.3-10.2C16-0.2,20.6-0.8,23.9,1.6
		C23.8,1.6,23.8,1.6,23.9,1.6"/>
	<path class="st0" d="M12.3,49.4c2.7,2.8,2.6,7.2-0.2,9.8c-2.8,2.7-7.2,2.6-9.8-0.2c-2.7-2.8-2.6-7.2,0.2-9.8c0,0,0,0,0,0
		C5.3,46.5,9.6,46.6,12.3,49.4"/>
	<g fill="var(--logo-text-color)">
		<path class="st1" d="M74,36.9h-6.5c-0.5,0-1-0.2-1.4-0.5c-0.4-0.4-0.6-0.8-0.6-1.3s0.2-1,0.6-1.4c0.4-0.4,0.8-0.6,1.4-0.6h7.8
			c0.7,0,1.3,0.3,1.8,0.8c0.5,0.5,0.8,1.1,0.8,1.9v14.7c0,0.5-0.1,1-0.4,1.4c-0.3,0.4-0.6,0.8-1.1,1c-1.3,0.6-2.8,1.1-4.5,1.4
			c-1.7,0.3-3.4,0.5-5.1,0.5c-4.1,0-7.4-1.2-9.8-3.7c-2.5-2.6-3.7-5.8-3.7-9.8V27.8c0-4.1,1.2-7.4,3.7-9.8c2.5-2.5,5.8-3.7,9.8-3.7
			c1.4,0,2.9,0.2,4.5,0.6c1.6,0.4,3,1,4.3,1.8c0.3,0.2,0.5,0.4,0.7,0.7c0.1,0.3,0.2,0.6,0.2,1c0,0.5-0.2,0.9-0.5,1.3
			c-0.4,0.4-0.8,0.5-1.3,0.5c-0.4,0-0.7-0.1-1-0.2c-0.8-0.4-1.8-0.9-3.1-1.3c-1.2-0.5-2.5-0.7-3.7-0.7c-3,0-5.3,0.9-7,2.6
			c-1.7,1.8-2.6,4.2-2.6,7.1v13.8c0,3,0.9,5.3,2.6,7.1c1.7,1.7,4.1,2.6,7,2.6c1.2,0,2.5-0.1,3.7-0.3c1.3-0.2,2.4-0.5,3.5-0.9V36.9z"
			/>
		<path class="st1" d="M85.3,33.3c0-1.2,0.2-2.2,0.6-3.2c0.4-1,0.9-1.8,1.6-2.4c0.7-0.7,1.4-1.2,2.3-1.6c0.9-0.4,1.9-0.6,2.9-0.6
			c1.3,0,2.6,0.1,4.1,0.4c0.4,0.1,0.8,0.3,1.1,0.7c0.3,0.4,0.4,0.8,0.4,1.2c0,0.5-0.2,1-0.6,1.3s-0.8,0.5-1.4,0.5
			c-0.2,0-0.3,0-0.5-0.1c-0.2,0-0.3-0.1-0.5-0.1c-0.4-0.1-0.9-0.1-1.3-0.2c-0.4-0.1-0.9-0.1-1.4-0.1c-1,0-1.8,0.3-2.5,1
			c-0.7,0.7-1,1.7-1,2.9v19.8c0,0.5-0.2,1-0.6,1.4c-0.4,0.4-0.8,0.6-1.4,0.6c-0.5,0-1-0.2-1.4-0.6s-0.6-0.8-0.6-1.4V33.3z"/>
		<path class="st1" d="M121.6,51c0,0.6-0.2,1.1-0.5,1.5c-0.3,0.5-0.8,0.8-1.3,1c-1.4,0.4-2.7,0.8-4.1,1c-1.4,0.2-2.8,0.4-4.3,0.4
			c-3.4,0-6-0.8-7.8-2.4c-1.7-1.5-2.5-3.5-2.5-6.2c0-2.6,0.8-4.7,2.5-6.2c0.9-0.8,1.9-1.4,3.3-1.7c1.3-0.4,2.8-0.5,4.6-0.5h6.4v-3.5
			c0-1.7-0.5-3-1.6-3.8c-1.1-0.8-2.5-1.3-4.3-1.3c-1.1,0-2.2,0.2-3.3,0.5c-1.1,0.3-2.1,0.8-3.2,1.4c-0.3,0.2-0.6,0.3-0.9,0.3
			c-0.5,0-1-0.2-1.4-0.5c-0.4-0.3-0.6-0.8-0.6-1.3c0-0.7,0.3-1.3,1-1.7c1.3-0.8,2.7-1.4,4.1-1.7c1.4-0.3,2.8-0.5,4.2-0.5
			c1.3,0,2.6,0.2,3.7,0.5c1.2,0.4,2.2,0.9,3.1,1.6c0.9,0.7,1.6,1.6,2.1,2.7c0.5,1.1,0.8,2.3,0.8,3.7V51z M117.7,41.2h-6.4
			c-1.4,0-2.6,0.2-3.4,0.5c-0.9,0.3-1.5,0.7-2,1.2c-0.5,0.5-0.7,1-0.9,1.6c-0.1,0.6-0.2,1.2-0.2,1.7s0.1,1.1,0.2,1.7
			c0.1,0.6,0.4,1.2,0.9,1.7c0.4,0.5,1.1,0.9,2,1.2c0.9,0.3,2,0.5,3.4,0.5c2.2,0,4.3-0.3,6.4-1V41.2z"/>
		<path class="st1" d="M128.9,29.4c0-0.6,0.2-1.1,0.5-1.5c0.3-0.5,0.8-0.8,1.3-1c2.7-0.9,5.5-1.4,8.5-1.4c1.5,0,2.9,0.3,4.2,0.8
			c1.3,0.5,2.3,1.2,3.2,2.1c0.9,0.9,1.6,2,2.1,3.2c0.5,1.3,0.7,2.7,0.7,4.2v8.7c0,1.5-0.2,2.9-0.7,4.2c-0.5,1.3-1.2,2.3-2.1,3.2
			c-0.9,0.9-2,1.6-3.2,2.1c-1.3,0.5-2.7,0.8-4.2,0.8c-1.2,0-2.3-0.1-3.4-0.5c-1.1-0.3-2.1-0.7-3.1-1.2v11.8c0,0.5-0.2,1-0.6,1.4
			c-0.4,0.4-0.8,0.6-1.4,0.6c-0.5,0-1-0.2-1.4-0.6c-0.4-0.4-0.6-0.8-0.6-1.4V29.4z M145.6,35.5c0-2-0.6-3.6-1.7-4.8
			c-1.1-1.1-2.7-1.7-4.7-1.7c-2.2,0-4.3,0.3-6.5,1v19c0.9,0.8,1.9,1.4,3,1.7c1.1,0.3,2.3,0.5,3.5,0.5c2,0,3.6-0.6,4.7-1.7
			c1.1-1.1,1.7-2.7,1.7-4.8V35.5z"/>
		<path class="st1" d="M173.4,35.5c0-2-0.6-3.6-1.7-4.8c-1.1-1.1-2.7-1.7-4.7-1.7c-2.5,0-4.7,0.8-6.5,2.5v21.3c0,0.5-0.2,1-0.6,1.4
			s-0.8,0.6-1.4,0.6c-0.5,0-1-0.2-1.4-0.6s-0.6-0.8-0.6-1.4V16.2c0-0.5,0.2-1,0.6-1.4s0.8-0.6,1.4-0.6c0.5,0,1,0.2,1.4,0.6
			s0.6,0.8,0.6,1.4v11c1-0.5,2-0.9,3.1-1.2c1.1-0.3,2.2-0.4,3.4-0.4c1.5,0,2.9,0.3,4.2,0.8c1.3,0.5,2.3,1.2,3.2,2.1
			c0.9,0.9,1.6,2,2.1,3.2c0.5,1.3,0.7,2.7,0.7,4.2v17.1c0,0.5-0.2,1-0.6,1.4c-0.4,0.4-0.8,0.6-1.4,0.6c-0.5,0-1-0.2-1.4-0.6
			s-0.6-0.8-0.6-1.4V35.5z"/>
		<path class="st1" d="M187.2,54.3c-0.8,0-1.4-0.3-1.9-0.8c-0.5-0.5-0.8-1.1-0.8-1.9V17.5c0-0.8,0.3-1.4,0.8-1.9
			c0.5-0.5,1.1-0.8,1.9-0.8h7.4c4.3,0,7.8,1.3,10.5,3.9c1.3,1.3,2.3,2.8,3,4.5s1,3.7,1,5.8v10.8c0,2.1-0.3,4.1-1,5.9
			c-0.7,1.8-1.6,3.3-3,4.6c-2.7,2.6-6.2,3.9-10.5,3.9H187.2z M205.2,29.1c0-3.3-0.9-5.8-2.8-7.7c-1.9-1.9-4.4-2.8-7.7-2.8h-6.1v31.9
			h6.1c3.3,0,5.9-0.9,7.7-2.8c1.9-1.9,2.8-4.5,2.8-7.8V29.1z"/>
		<path class="st1" d="M219.1,54.3c-0.8,0-1.4-0.3-1.9-0.8c-0.5-0.5-0.8-1.1-0.8-1.9V17.5c0-0.8,0.3-1.4,0.8-1.9
			c0.5-0.5,1.1-0.8,1.9-0.8h8.7c1.5,0,3,0.2,4.2,0.7c1.3,0.5,2.4,1.2,3.3,2.1c0.9,0.9,1.6,2,2.2,3.3c0.5,1.3,0.8,2.7,0.8,4.4
			c0,1.7-0.4,3.3-1.2,4.7c-0.8,1.4-1.9,2.7-3.3,3.6c1.7,1,3.1,2.3,4.1,3.9c1,1.6,1.6,3.5,1.6,5.5c0,1.7-0.3,3.3-0.8,4.7
			c-0.5,1.4-1.3,2.6-2.3,3.5c-1,1-2.2,1.7-3.6,2.2c-1.4,0.5-2.9,0.8-4.6,0.8H219.1z M226.8,31.9c1,0,2-0.2,3-0.5s1.7-0.8,2.4-1.4
			c0.7-0.6,1.2-1.3,1.6-2.1c0.4-0.8,0.6-1.7,0.6-2.6c0-2.1-0.6-3.8-1.7-5c-1.1-1.2-2.8-1.7-4.9-1.7h-7.4v13.3H226.8z M228.1,50.5
			c2.2,0,4-0.6,5.3-1.8s2-3.1,2-5.6c0-1-0.2-2-0.6-2.9c-0.4-0.9-1-1.7-1.7-2.4c-0.7-0.7-1.6-1.2-2.6-1.6c-1-0.4-2.1-0.6-3.3-0.6
			h-6.9v14.8H228.1z"/>
	</g>
</g>
</svg>
