<svg width="151" height="40" viewBox="0 0 151 40" fill="none" xmlns="http://www.w3.org/2000/svg">
<g clip-path="url(#clip0_6236_23332)">
<g clip-path="url(#clip1_6236_23332)">
<path fill-rule="evenodd" clip-rule="evenodd" d="M25.7988 19.8489C25.7988 18.9503 26.5277 18.2214 27.4263 18.2214C28.325 18.2214 29.0538 18.9503 29.0538 19.8489C29.0538 20.7476 28.325 21.4755 27.4263 21.4755C26.5277 21.4755 25.7988 20.7476 25.7988 19.8489Z" fill="#001FFF"/>
<path fill-rule="evenodd" clip-rule="evenodd" d="M19.3716 13.421C20.2703 13.421 20.9991 12.6931 20.9991 11.7935C20.9991 10.8939 20.2703 10.166 19.3716 10.166C18.473 10.166 17.7441 10.8949 17.7441 11.7935C17.7441 12.6922 18.473 13.421 19.3716 13.42V13.421Z" fill="#001FFF"/>
<path fill-rule="evenodd" clip-rule="evenodd" d="M17.7441 27.9044C17.7441 27.0057 18.473 26.2769 19.3716 26.2769C20.2703 26.2769 20.9991 27.0057 20.9991 27.9044C20.9991 28.803 20.2703 29.5309 19.3716 29.5309C18.473 29.5309 17.7441 28.803 17.7441 27.9044Z" fill="#001FFF"/>
<path fill-rule="evenodd" clip-rule="evenodd" d="M11.316 21.4764C12.2146 21.4764 12.9435 20.7486 12.9435 19.8489C12.9435 18.9503 12.2146 18.2214 11.316 18.2214C10.4173 18.2214 9.68848 18.9503 9.68848 19.8489C9.68848 20.7476 10.4173 21.4774 11.316 21.4764Z" fill="#001FFF"/>
<path d="M19.3717 6.99414C21.1694 6.99414 22.6267 5.53683 22.6267 3.73914C22.6267 1.94145 21.1694 0.484131 19.3717 0.484131C17.574 0.484131 16.1167 1.94145 16.1167 3.73914C16.1167 5.53683 17.574 6.99414 19.3717 6.99414Z" fill="#001FFF"/>
<path d="M3.26038 23.1038C5.05807 23.1038 6.51538 21.6464 6.51538 19.8488C6.51538 18.0511 5.05807 16.5938 3.26038 16.5938C1.46269 16.5938 0.00537109 18.0511 0.00537109 19.8488C0.00537109 21.6464 1.46269 23.1038 3.26038 23.1038Z" fill="#001FFF"/>
<path d="M35.4821 23.1038C37.2798 23.1038 38.7371 21.6464 38.7371 19.8488C38.7371 18.0511 37.2798 16.5938 35.4821 16.5938C33.6844 16.5938 32.2271 18.0511 32.2271 19.8488C32.2271 21.6464 33.6844 23.1038 35.4821 23.1038Z" fill="#001FFF"/>
<path d="M19.3717 39.2153C21.1694 39.2153 22.6267 37.758 22.6267 35.9603C22.6267 34.1626 21.1694 32.7053 19.3717 32.7053C17.574 32.7053 16.1167 34.1626 16.1167 35.9603C16.1167 37.758 17.574 39.2153 19.3717 39.2153Z" fill="#001FFF"/>
<path d="M27.4264 31.1597C29.2241 31.1597 30.6814 29.7024 30.6814 27.9047C30.6814 26.107 29.2241 24.6497 27.4264 24.6497C25.6287 24.6497 24.1714 26.107 24.1714 27.9047C24.1714 29.7024 25.6287 31.1597 27.4264 31.1597Z" fill="#001FFF"/>
<path d="M27.4264 15.0483C29.2241 15.0483 30.6814 13.591 30.6814 11.7933C30.6814 9.99565 29.2241 8.53833 27.4264 8.53833C25.6287 8.53833 24.1714 9.99565 24.1714 11.7933C24.1714 13.591 25.6287 15.0483 27.4264 15.0483Z" fill="#001FFF"/>
<path d="M14.1117 26.2594L17.7268 22.6443C18.9747 23.3781 20.6022 23.221 21.6726 22.1506C22.944 20.8793 22.944 18.8185 21.6726 17.5472C20.6139 16.4885 19.0118 16.3246 17.7697 17.03L14.1342 13.3945C14.8396 12.1524 14.6767 10.5503 13.617 9.49161C12.3457 8.22024 10.2849 8.22024 9.01358 9.49161C7.74222 10.763 7.74222 12.8237 9.01358 14.0951C10.0966 15.1781 11.7505 15.3294 13.0033 14.5663L16.5979 18.1609C15.9754 19.1825 15.9695 20.4646 16.5754 21.494L12.9604 25.109C11.7124 24.3743 10.0849 24.5314 9.01358 25.6027C7.74222 26.8741 7.74222 28.9348 9.01358 30.2062C10.2849 31.4775 12.3457 31.4775 13.617 30.2062C14.6884 29.1348 14.8455 27.5073 14.1108 26.2604L14.1117 26.2594Z" fill="#DF367C"/>
<path d="M52.0342 20.101C52.0342 15.559 55.5243 12.1118 60.1112 12.1118C63.6248 12.1118 66.5119 14.1033 67.5403 16.9904H65.2572C64.2951 15.2224 62.3924 14.0818 60.1112 14.0818C56.7108 14.0818 54.1369 16.6772 54.1369 20.101C54.1369 23.5248 56.7108 26.1202 60.1112 26.1202C63.0871 26.1202 65.4367 24.1961 65.8397 21.4651H60.6703V19.6083H68.0097V20.2796C68.0097 24.7552 64.6307 28.0893 60.1102 28.0893C55.5234 28.0893 52.0332 24.643 52.0332 20.1L52.0342 20.101Z" fill="#220F60"/>
<path d="M70.6592 16.4085H72.5833V18.5795C73.4566 17.1023 74.888 16.23 76.6774 16.23H77.0355V18.2214H76.6774C74.1279 18.2214 72.5833 19.7436 72.5833 22.0931V27.8215H70.6592V16.4095V16.4085Z" fill="#220F60"/>
<path d="M77.9487 22.115C77.9487 18.7146 80.3871 16.1406 83.6547 16.1406C85.5564 16.1406 87.1234 17.0363 88.0855 18.4687V16.4099H90.0106V27.822H88.0855V25.7632C87.1234 27.1955 85.5564 28.0913 83.6547 28.0913C80.3871 28.0913 77.9487 25.5163 77.9487 22.115ZM88.0855 22.115C88.0855 19.7664 86.3399 17.9974 84.0128 17.9974C81.6633 17.9974 79.9177 19.7654 79.9177 22.115C79.9177 24.4645 81.6633 26.2335 84.0128 26.2335C86.3399 26.2335 88.0855 24.4655 88.0855 22.115Z" fill="#220F60"/>
<path d="M93.1616 16.4089H95.0867V18.4677C96.0488 17.0354 97.6158 16.1396 99.5175 16.1396C102.784 16.1396 105.246 18.7136 105.246 22.114C105.246 25.5144 102.784 28.0893 99.5175 28.0893C97.6158 28.0893 96.0488 27.1936 95.0867 25.7612V32.0722H93.1616V16.4089ZM103.254 22.115C103.254 19.7664 101.509 17.9974 99.1594 17.9974C96.8323 17.9974 95.0867 19.7654 95.0867 22.115C95.0867 24.4645 96.8323 26.2335 99.1594 26.2335C101.509 26.2335 103.254 24.4655 103.254 22.115Z" fill="#220F60"/>
<path d="M107.737 11.7097H109.661V18.1992C110.557 16.8781 111.989 16.1405 113.779 16.1405C116.554 16.1405 118.411 17.9758 118.411 20.7722V27.8218H116.486V21.3772C116.486 19.3408 115.188 17.9982 113.152 17.9982C111.048 17.9982 109.661 19.3633 109.661 21.422V27.8228H107.737V11.7097Z" fill="#220F60"/>
<path d="M121.702 12.3811H127.656C132.13 12.3811 135.487 15.6927 135.487 20.101C135.487 24.5093 132.13 27.8209 127.656 27.8209H121.702V12.3811ZM123.761 14.3052V25.8968H127.632C130.9 25.8968 133.384 23.4136 133.384 20.102C133.384 16.7904 130.9 14.3062 127.632 14.3062L123.761 14.3052Z" fill="#220F60"/>
<path d="M138.3 12.3811H145.281C147.519 12.3811 149.243 14.0145 149.243 16.2528C149.243 17.7749 148.392 19.0726 147.273 19.6083C148.997 20.0561 150.182 21.6895 150.182 23.6585C150.182 26.0529 148.369 27.8209 145.931 27.8209H138.3V12.3811ZM140.292 14.2379V18.937H144.812C146.065 18.937 147.14 17.93 147.14 16.5874C147.14 15.2448 146.133 14.2379 144.812 14.2379H140.292ZM140.292 20.705V25.9641H145.461C146.96 25.9641 148.079 24.8225 148.079 23.3238C148.079 21.8251 146.961 20.705 145.461 20.705H140.292Z" fill="#220F60"/>
</g>
</g>
<defs>
<clipPath id="clip0_6236_23332">
<rect width="150.851" height="40.0046" fill="white"/>
</clipPath>
<clipPath id="clip1_6236_23332">
<rect width="150.851" height="40.0046" fill="white"/>
</clipPath>
</defs>
</svg>
