<?xml version="1.0" encoding="utf-8"?>
<!-- Generator: Adobe Illustrator 21.0.0, SVG Export Plug-In . SVG Version: 6.00 Build 0)  -->
<svg version="1.1" id="Layer_1" xmlns="http://www.w3.org/2000/svg" xmlns:xlink="http://www.w3.org/1999/xlink" x="0px" y="0px"
	 viewBox="0 0 600 200" style="enable-background:new 0 0 600 200;" xml:space="preserve">
<style type="text/css">
	.st0{fill:#15365D;}
	.st1{fill:#F05025;}
	.st2{fill:#FFFFFF;}
</style>
<rect x="405.4" y="74.7" class="st1" width="194.5" height="52.6"/>
<g>
	<path class="st1" d="M85.1,90.7c5.8,1.2,9.5,6.8,8.3,12.6c-1.2,5.8-6.8,9.5-12.6,8.3c-5.7-1.2-9.5-6.8-8.4-12.5s6.7-9.5,12.4-8.4
		C85,90.5,85,90.5,85.1,90.7"/>
	<path class="st1" d="M63,107.7c3.4,0.8,5.6,4.1,5,7.5c-0.7,3.4-4.1,5.6-7.5,4.9c-3.4-0.7-5.6-3.9-5-7.5
		C56.3,109.1,59.6,107,63,107.7"/>
	<path class="st1" d="M71.6,77.4c2.3,0.5,3.8,2.7,3.4,5c-0.5,2.3-2.7,3.8-5,3.4c-2.3-0.5-3.8-2.7-3.4-5l0,0
		C67,78.5,69.3,77,71.6,77.4L71.6,77.4"/>
	<path class="st1" d="M64.2,55.1c4.3,3.4,5.2,9.5,1.8,14c-3.4,4.5-9.5,5.2-14,1.8c-4.3-3.4-5.2-9.5-1.8-13.9
		C53.4,52.7,59.7,51.8,64.2,55.1C64,55.1,64,55.1,64.2,55.1"/>
	<path class="st1" d="M48.4,120c3.7,3.8,3.5,9.8-0.3,13.3c-3.8,3.7-9.8,3.5-13.3-0.3c-3.7-3.8-3.5-9.8,0.3-13.3l0,0
		C38.9,116.1,44.8,116.2,48.4,120"/>
	<g>
		<path class="st0" d="M132.2,103h-8.8c-0.7,0-1.4-0.3-1.9-0.7c-0.5-0.5-0.8-1.1-0.8-1.8c0-0.7,0.3-1.4,0.8-1.9
			c0.5-0.5,1.1-0.8,1.9-0.8H134c1,0,1.8,0.4,2.4,1.1c0.7,0.7,1.1,1.5,1.1,2.6v20c0,0.7-0.1,1.4-0.5,1.9c-0.4,0.5-0.8,1.1-1.5,1.4
			c-1.8,0.8-3.8,1.5-6.1,1.9s-4.6,0.7-6.9,0.7c-5.6,0-10-1.6-13.3-5c-3.4-3.5-5-7.9-5-13.3V90.7c0-5.6,1.6-10,5-13.3
			c3.4-3.4,7.9-5,13.3-5c1.9,0,3.9,0.3,6.1,0.8c2.2,0.5,4.1,1.4,5.8,2.4c0.4,0.3,0.7,0.5,1,1c0.1,0.4,0.3,0.8,0.3,1.4
			c0,0.7-0.3,1.2-0.7,1.8c-0.5,0.5-1.1,0.7-1.8,0.7c-0.5,0-1-0.1-1.4-0.3c-1.1-0.5-2.4-1.2-4.2-1.8c-1.6-0.7-3.4-1-5-1
			c-4.1,0-7.2,1.2-9.5,3.5c-2.3,2.4-3.5,5.7-3.5,9.6v18.7c0,4.1,1.2,7.2,3.5,9.6c2.3,2.3,5.6,3.5,9.5,3.5c1.6,0,3.4-0.1,5-0.4
			c1.8-0.3,3.3-0.7,4.8-1.2V103H132.2z"/>
		<path class="st0" d="M147.6,98.1c0-1.6,0.3-3,0.8-4.3s1.2-2.4,2.2-3.3c1-1,1.9-1.6,3.1-2.2c1.2-0.5,2.6-0.8,3.9-0.8
			c1.8,0,3.5,0.1,5.6,0.5c0.5,0.1,1.1,0.4,1.5,1c0.4,0.5,0.5,1.1,0.5,1.6c0,0.7-0.3,1.4-0.8,1.8c-0.5,0.4-1.1,0.7-1.9,0.7
			c-0.3,0-0.4,0-0.7-0.1c-0.3,0-0.4-0.1-0.7-0.1c-0.5-0.1-1.2-0.1-1.8-0.3c-0.5-0.1-1.2-0.1-1.9-0.1c-1.4,0-2.4,0.4-3.4,1.4
			s-1.4,2.3-1.4,3.9v26.9c0,0.7-0.3,1.4-0.8,1.9c-0.5,0.5-1.1,0.8-1.9,0.8c-0.7,0-1.4-0.3-1.9-0.8c-0.5-0.5-0.8-1.1-0.8-1.9V98.1
			H147.6z"/>
		<path class="st0" d="M196.9,122.2c0,0.8-0.3,1.5-0.7,2c-0.4,0.7-1.1,1.1-1.8,1.4c-1.9,0.5-3.7,1.1-5.6,1.4
			c-1.9,0.3-3.8,0.5-5.8,0.5c-4.6,0-8.1-1.1-10.6-3.3c-2.3-2-3.4-4.8-3.4-8.4c0-3.5,1.1-6.4,3.4-8.4c1.2-1.1,2.6-1.9,4.5-2.3
			c1.8-0.5,3.8-0.7,6.2-0.7h8.7v-4.8c0-2.3-0.7-4.1-2.2-5.2c-1.5-1.1-3.4-1.8-5.8-1.8c-1.5,0-3,0.3-4.5,0.7
			c-1.5,0.4-2.9,1.1-4.3,1.9c-0.4,0.3-0.8,0.4-1.2,0.4c-0.7,0-1.4-0.3-1.9-0.7c-0.5-0.4-0.8-1.1-0.8-1.8c0-1,0.4-1.8,1.4-2.3
			c1.8-1.1,3.7-1.9,5.6-2.3c1.9-0.4,3.8-0.7,5.7-0.7c1.8,0,3.5,0.3,5,0.7c1.6,0.5,3,1.2,4.2,2.2c1.2,1,2.2,2.2,2.9,3.7
			c0.7,1.5,1.1,3.1,1.1,5L196.9,122.2L196.9,122.2z M191.6,108.9h-8.7c-1.9,0-3.5,0.3-4.6,0.7c-1.2,0.4-2,1-2.7,1.6
			c-0.7,0.7-1,1.4-1.2,2.2c-0.1,0.8-0.3,1.6-0.3,2.3c0,0.7,0.1,1.5,0.3,2.3s0.5,1.6,1.2,2.3c0.5,0.7,1.5,1.2,2.7,1.6
			c1.2,0.4,2.7,0.7,4.6,0.7c3,0,5.8-0.4,8.7-1.4V108.9z"/>
		<path class="st0" d="M206.8,92.8c0-0.8,0.3-1.5,0.7-2c0.4-0.7,1.1-1.1,1.8-1.4c3.7-1.2,7.5-1.9,11.5-1.9c2,0,3.9,0.4,5.7,1.1
			c1.8,0.7,3.1,1.6,4.3,2.9c1.2,1.2,2.2,2.7,2.9,4.3c0.7,1.8,1,3.7,1,5.7v11.8c0,2-0.3,3.9-1,5.7c-0.7,1.8-1.6,3.1-2.9,4.3
			c-1.2,1.2-2.7,2.2-4.3,2.9c-1.8,0.7-3.7,1.1-5.7,1.1c-1.6,0-3.1-0.1-4.6-0.7c-1.5-0.4-2.9-1-4.2-1.6v16c0,0.7-0.3,1.4-0.8,1.9
			c-0.5,0.5-1.1,0.8-1.9,0.8c-0.7,0-1.4-0.3-1.9-0.8s-0.8-1.1-0.8-1.9V92.8H206.8z M229.5,101.1c0-2.7-0.8-4.9-2.3-6.5
			c-1.5-1.5-3.7-2.3-6.4-2.3c-3,0-5.8,0.4-8.8,1.4v25.8c1.2,1.1,2.6,1.9,4.1,2.3c1.5,0.4,3.1,0.7,4.8,0.7c2.7,0,4.9-0.8,6.4-2.3
			c1.5-1.5,2.3-3.7,2.3-6.5V101.1z"/>
		<path class="st0" d="M267.2,101.1c0-2.7-0.8-4.9-2.3-6.5c-1.5-1.5-3.7-2.3-6.4-2.3c-3.4,0-6.4,1.1-8.8,3.4v28.9
			c0,0.7-0.3,1.4-0.8,1.9c-0.5,0.5-1.1,0.8-1.9,0.8c-0.7,0-1.4-0.3-1.9-0.8c-0.5-0.5-0.8-1.1-0.8-1.9V74.9c0-0.7,0.3-1.4,0.8-1.9
			c0.5-0.5,1.1-0.8,1.9-0.8c0.7,0,1.4,0.3,1.9,0.8s0.8,1.1,0.8,1.9v14.9c1.4-0.7,2.7-1.2,4.2-1.6c1.5-0.4,3-0.5,4.6-0.5
			c2,0,3.9,0.4,5.7,1.1c1.8,0.7,3.1,1.6,4.3,2.9c1.2,1.2,2.2,2.7,2.9,4.3c0.7,1.8,1,3.7,1,5.7v23.2c0,0.7-0.3,1.4-0.8,1.9
			c-0.5,0.5-1.1,0.8-1.9,0.8c-0.7,0-1.4-0.3-1.9-0.8c-0.5-0.5-0.8-1.1-0.8-1.9v-23.8H267.2z"/>
		<path class="st0" d="M285.9,126.7c-1.1,0-1.9-0.4-2.6-1.1c-0.7-0.7-1.1-1.5-1.1-2.6V76.7c0-1.1,0.4-1.9,1.1-2.6
			c0.7-0.7,1.5-1.1,2.6-1.1h10c5.8,0,10.6,1.8,14.3,5.3c1.8,1.8,3.1,3.8,4.1,6.1c1,2.3,1.4,5,1.4,7.9V107c0,2.9-0.4,5.6-1.4,8
			c-1,2.4-2.2,4.5-4.1,6.2c-3.7,3.5-8.4,5.3-14.3,5.3h-10V126.7z M310.4,92.4c0-4.5-1.2-7.9-3.8-10.5c-2.6-2.6-6-3.8-10.5-3.8h-8.3
			v43.3h8.3c4.5,0,8-1.2,10.5-3.8c2.6-2.6,3.8-6.1,3.8-10.6V92.4z"/>
		<path class="st0" d="M329.3,126.7c-1.1,0-1.9-0.4-2.6-1.1c-0.7-0.7-1.1-1.5-1.1-2.6V76.7c0-1.1,0.4-1.9,1.1-2.6
			c0.7-0.7,1.5-1.1,2.6-1.1h11.8c2,0,4.1,0.3,5.7,1c1.8,0.7,3.3,1.6,4.5,2.9s2.2,2.7,3,4.5c0.7,1.8,1.1,3.7,1.1,6s-0.5,4.5-1.6,6.4
			c-1.1,1.9-2.6,3.7-4.5,4.9c2.3,1.4,4.2,3.1,5.6,5.3c1.4,2.2,2.2,4.8,2.2,7.5c0,2.3-0.4,4.5-1.1,6.4c-0.7,1.9-1.8,3.5-3.1,4.8
			c-1.4,1.4-3,2.3-4.9,3c-1.9,0.7-3.9,1.1-6.2,1.1h-12.4V126.7z M339.7,96.2c1.4,0,2.7-0.3,4.1-0.7s2.3-1.1,3.3-1.9
			c1-0.8,1.6-1.8,2.2-2.9c0.5-1.1,0.8-2.3,0.8-3.5c0-2.9-0.8-5.2-2.3-6.8c-1.5-1.6-3.8-2.3-6.7-2.3h-10v18.1
			C331,96.2,339.7,96.2,339.7,96.2z M341.5,121.5c3,0,5.4-0.8,7.2-2.4c1.8-1.6,2.7-4.2,2.7-7.6c0-1.4-0.3-2.7-0.8-3.9
			c-0.5-1.2-1.4-2.3-2.3-3.3c-1-1-2.2-1.6-3.5-2.2c-1.4-0.5-2.9-0.8-4.5-0.8h-9.4v20.1h10.6V121.5z"/>
	</g>
</g>
<g>
	<g>
		<path class="st2" d="M497.2,104c0,0.8-0.1,1.6-0.4,2.3s-0.7,1.3-1.1,1.8c-0.5,0.5-1.1,0.9-1.8,1.2c-0.7,0.3-1.5,0.4-2.3,0.4
			c-0.8,0-1.6-0.1-2.3-0.4c-0.7-0.3-1.3-0.7-1.8-1.2c-0.5-0.5-0.9-1.1-1.1-1.8c-0.3-0.7-0.4-1.5-0.4-2.3v-4c0-0.8,0.1-1.6,0.4-2.3
			c0.3-0.7,0.7-1.3,1.1-1.8c0.5-0.5,1.1-0.9,1.8-1.2c0.7-0.3,1.5-0.4,2.3-0.4c0.8,0,1.6,0.1,2.3,0.4c0.7,0.3,1.3,0.7,1.8,1.2
			c0.5,0.5,0.9,1.1,1.1,1.8s0.4,1.5,0.4,2.3V104z M495.2,99.9c0-1.2-0.3-2.1-1-2.7c-0.6-0.6-1.5-1-2.7-1c-1.2,0-2,0.3-2.7,1
			c-0.6,0.6-1,1.5-1,2.7v4.3c0,1.2,0.3,2.1,1,2.7c0.6,0.6,1.5,1,2.7,1c1.2,0,2-0.3,2.7-1c0.6-0.6,1-1.5,1-2.7V99.9z"/>
		<path class="st2" d="M510.6,99.6c0-1.1-0.3-1.9-0.9-2.5c-0.6-0.6-1.4-0.9-2.5-0.9c-1.2,0-2.3,0.2-3.4,0.5v11.9
			c0,0.3-0.1,0.5-0.3,0.7c-0.2,0.2-0.4,0.3-0.7,0.3c-0.3,0-0.5-0.1-0.7-0.3c-0.2-0.2-0.3-0.4-0.3-0.7V96.4c0-0.3,0.1-0.6,0.3-0.8
			c0.2-0.2,0.4-0.4,0.7-0.5c1.3-0.5,2.8-0.7,4.4-0.7c0.8,0,1.5,0.1,2.2,0.4c0.7,0.3,1.2,0.6,1.7,1.1c0.5,0.5,0.8,1,1.1,1.7
			c0.3,0.7,0.4,1.4,0.4,2.2v8.9c0,0.3-0.1,0.5-0.3,0.7c-0.2,0.2-0.4,0.3-0.7,0.3c-0.3,0-0.5-0.1-0.7-0.3c-0.2-0.2-0.3-0.4-0.3-0.7
			V99.6z"/>
		<path class="st2" d="M517.9,92.1c0-0.3,0.1-0.5,0.3-0.7c0.2-0.2,0.4-0.3,0.7-0.3s0.5,0.1,0.7,0.3c0.2,0.2,0.3,0.4,0.3,0.7v2.6h3.4
			c0.3,0,0.5,0.1,0.7,0.3c0.2,0.2,0.3,0.4,0.3,0.7c0,0.3-0.1,0.5-0.3,0.7c-0.2,0.2-0.4,0.3-0.7,0.3h-3.4v9.1c0,0.6,0.2,1.1,0.5,1.5
			c0.4,0.4,0.8,0.5,1.3,0.5c0.2,0,0.5,0,0.8-0.1c0.3,0,0.6-0.1,0.7-0.1c0.2,0,0.4,0.1,0.6,0.2c0.2,0.2,0.3,0.4,0.3,0.7
			c0,0.2-0.1,0.4-0.2,0.6c-0.1,0.2-0.3,0.3-0.6,0.3c-0.3,0-0.6,0.1-0.8,0.1c-0.3,0-0.6,0-0.8,0c-0.5,0-1-0.1-1.5-0.3
			c-0.5-0.2-0.9-0.5-1.2-0.8c-0.3-0.4-0.6-0.8-0.8-1.3c-0.2-0.5-0.3-1-0.3-1.6V92.1z"/>
		<path class="st2" d="M538.4,104c0,0.8-0.1,1.6-0.4,2.3c-0.3,0.7-0.7,1.3-1.1,1.8c-0.5,0.5-1.1,0.9-1.8,1.2
			c-0.7,0.3-1.5,0.4-2.3,0.4c-0.8,0-1.6-0.1-2.3-0.4c-0.7-0.3-1.3-0.7-1.8-1.2c-0.5-0.5-0.9-1.1-1.1-1.8s-0.4-1.5-0.4-2.3v-4
			c0-0.8,0.1-1.6,0.4-2.3s0.7-1.3,1.1-1.8c0.5-0.5,1.1-0.9,1.8-1.2c0.7-0.3,1.5-0.4,2.3-0.4c0.8,0,1.6,0.1,2.3,0.4
			c0.7,0.3,1.3,0.7,1.8,1.2c0.5,0.5,0.9,1.1,1.1,1.8c0.3,0.7,0.4,1.5,0.4,2.3V104z M536.4,99.9c0-1.2-0.3-2.1-1-2.7
			c-0.6-0.6-1.5-1-2.7-1c-1.2,0-2,0.3-2.7,1c-0.6,0.6-1,1.5-1,2.7v4.3c0,1.2,0.3,2.1,1,2.7c0.6,0.6,1.5,1,2.7,1c1.2,0,2-0.3,2.7-1
			c0.6-0.6,1-1.5,1-2.7V99.9z"/>
		<path class="st2" d="M543.1,92.1c0-0.3,0.1-0.5,0.3-0.7c0.2-0.2,0.4-0.3,0.7-0.3s0.5,0.1,0.7,0.3c0.2,0.2,0.3,0.4,0.3,0.7v2.6h3.4
			c0.3,0,0.5,0.1,0.7,0.3c0.2,0.2,0.3,0.4,0.3,0.7c0,0.3-0.1,0.5-0.3,0.7c-0.2,0.2-0.4,0.3-0.7,0.3h-3.4v9.1c0,0.6,0.2,1.1,0.5,1.5
			c0.4,0.4,0.8,0.5,1.3,0.5c0.2,0,0.5,0,0.8-0.1c0.3,0,0.6-0.1,0.7-0.1c0.2,0,0.4,0.1,0.6,0.2c0.2,0.2,0.3,0.4,0.3,0.7
			c0,0.2-0.1,0.4-0.2,0.6c-0.1,0.2-0.3,0.3-0.6,0.3c-0.3,0-0.6,0.1-0.8,0.1c-0.3,0-0.6,0-0.8,0c-0.5,0-1-0.1-1.5-0.3
			c-0.5-0.2-0.9-0.5-1.2-0.8c-0.3-0.4-0.6-0.8-0.8-1.3c-0.2-0.5-0.3-1-0.3-1.6V92.1z"/>
		<path class="st2" d="M554.9,102.7v1.6c0,1.1,0.3,1.9,0.9,2.6c0.6,0.6,1.4,1,2.5,1c0.6,0,1.2-0.1,1.7-0.2c0.6-0.2,1.1-0.4,1.6-0.6
			c0.1-0.1,0.3-0.1,0.4-0.1c0.3,0,0.5,0.1,0.7,0.3c0.2,0.2,0.3,0.4,0.3,0.7c0,0.4-0.2,0.7-0.6,0.9c-0.7,0.3-1.3,0.6-2,0.7
			c-0.7,0.1-1.4,0.2-2.2,0.2c-0.8,0-1.5-0.1-2.2-0.4c-0.7-0.3-1.2-0.6-1.7-1.1c-0.5-0.5-0.8-1-1.1-1.7c-0.3-0.7-0.4-1.4-0.4-2.2
			v-4.5c0-0.8,0.1-1.5,0.4-2.2c0.3-0.7,0.6-1.2,1.1-1.7c0.5-0.5,1-0.8,1.7-1.1c0.7-0.3,1.4-0.4,2.2-0.4c0.8,0,1.5,0.1,2.2,0.4
			c0.7,0.3,1.2,0.6,1.7,1.1c0.5,0.5,0.8,1,1.1,1.7c0.3,0.7,0.4,1.4,0.4,2.2v1.5c0,0.4-0.1,0.7-0.4,1c-0.3,0.3-0.6,0.4-1,0.4H554.9z
			 M561.7,99.6c0-1.1-0.3-1.9-0.9-2.5c-0.6-0.6-1.4-0.9-2.5-0.9c-1.1,0-1.9,0.3-2.5,0.9c-0.6,0.6-0.9,1.4-0.9,2.5v1.2h6.7V99.6z"/>
		<path class="st2" d="M571.9,103.7l-3.5,5.5c-0.2,0.3-0.5,0.5-0.8,0.5c-0.3,0-0.5-0.1-0.7-0.3c-0.2-0.2-0.3-0.4-0.3-0.7
			c0-0.2,0-0.4,0.1-0.5l4.1-6.2l-4-6c-0.1-0.2-0.2-0.4-0.2-0.6c0-0.3,0.1-0.5,0.3-0.7c0.2-0.2,0.4-0.3,0.7-0.3
			c0.4,0,0.6,0.2,0.9,0.5l3.4,5.3l3.4-5.3c0.2-0.3,0.5-0.5,0.8-0.5c0.3,0,0.5,0.1,0.7,0.3c0.2,0.2,0.3,0.4,0.3,0.7
			c0,0.2-0.1,0.4-0.2,0.6l-4,6l4.1,6.2c0.1,0.2,0.1,0.3,0.1,0.5c0,0.3-0.1,0.5-0.3,0.7c-0.2,0.2-0.4,0.3-0.7,0.3
			c-0.4,0-0.6-0.2-0.8-0.5L571.9,103.7z"/>
		<path class="st2" d="M581.4,92.1c0-0.3,0.1-0.5,0.3-0.7c0.2-0.2,0.4-0.3,0.7-0.3s0.5,0.1,0.7,0.3c0.2,0.2,0.3,0.4,0.3,0.7v2.6h3.4
			c0.3,0,0.5,0.1,0.7,0.3c0.2,0.2,0.3,0.4,0.3,0.7c0,0.3-0.1,0.5-0.3,0.7c-0.2,0.2-0.4,0.3-0.7,0.3h-3.4v9.1c0,0.6,0.2,1.1,0.5,1.5
			c0.4,0.4,0.8,0.5,1.3,0.5c0.2,0,0.5,0,0.8-0.1c0.3,0,0.6-0.1,0.7-0.1c0.2,0,0.4,0.1,0.6,0.2c0.2,0.2,0.3,0.4,0.3,0.7
			c0,0.2-0.1,0.4-0.2,0.6c-0.1,0.2-0.3,0.3-0.6,0.3c-0.3,0-0.6,0.1-0.8,0.1c-0.3,0-0.6,0-0.8,0c-0.5,0-1-0.1-1.5-0.3
			c-0.5-0.2-0.9-0.5-1.2-0.8c-0.3-0.4-0.6-0.8-0.8-1.3c-0.2-0.5-0.3-1-0.3-1.6V92.1z"/>
	</g>
	<g>
		<path class="st2" d="M423.4,109.7c-0.8,0-1.5-0.1-2.3-0.2c-0.7-0.1-1.5-0.3-2.2-0.5c-0.3-0.1-0.5-0.3-0.7-0.5
			c-0.2-0.2-0.3-0.5-0.3-0.8V89.5c0-0.3,0.1-0.5,0.3-0.7c0.2-0.2,0.4-0.3,0.7-0.3c0.3,0,0.5,0.1,0.7,0.3c0.2,0.2,0.3,0.4,0.3,0.7
			v5.7c0.5-0.3,1-0.5,1.6-0.6c0.6-0.2,1.2-0.2,1.8-0.2c1.6,0,2.9,0.5,3.9,1.5c1,1,1.4,2.3,1.4,3.9v4.5c0,0.8-0.1,1.5-0.4,2.2
			c-0.3,0.7-0.6,1.2-1.1,1.7c-0.5,0.5-1,0.8-1.7,1.1C425,109.6,424.2,109.7,423.4,109.7z M426.8,99.6c0-1.1-0.3-1.9-0.9-2.5
			c-0.6-0.6-1.4-0.9-2.5-0.9c-0.6,0-1.2,0.1-1.8,0.3c-0.6,0.2-1.1,0.5-1.6,0.9v9.9c1.1,0.3,2.2,0.5,3.4,0.5c1.1,0,1.9-0.3,2.5-0.9
			c0.6-0.6,0.9-1.4,0.9-2.5V99.6z"/>
		<path class="st2" d="M437.3,109.4l-4.9-13.6c0-0.1,0-0.1,0-0.2c0,0,0-0.1,0-0.2c0-0.3,0.1-0.5,0.3-0.7c0.2-0.2,0.4-0.3,0.7-0.3
			c0.2,0,0.4,0.1,0.6,0.2c0.2,0.1,0.3,0.3,0.4,0.5l4,11.5l3.5-11.4c0.1-0.2,0.2-0.4,0.4-0.5c0.2-0.1,0.4-0.2,0.6-0.2
			c0.3,0,0.5,0.1,0.7,0.3c0.2,0.2,0.3,0.4,0.3,0.7c0,0.1,0,0.1,0,0.2c0,0,0,0.1,0,0.2l-5.2,16.5c-0.4,1.1-1,2-1.9,2.7
			c-0.9,0.7-2,1-3.3,1c-0.3,0-0.5-0.1-0.7-0.3c-0.2-0.2-0.3-0.4-0.3-0.7c0-0.3,0.1-0.5,0.3-0.6c0.2-0.2,0.4-0.3,0.7-0.3
			c1.7-0.1,2.8-0.9,3.3-2.3L437.3,109.4z"/>
	</g>
</g>
<g>
	<circle class="st2" cx="465.5" cy="90.4" r="1"/>
	<circle class="st2" cx="471.6" cy="92" r="2.6"/>
	<circle class="st2" cx="475.5" cy="95.2" r="1.3"/>
	<circle class="st2" cx="477.7" cy="100.7" r="2.9"/>
	<circle class="st2" cx="476.7" cy="106.8" r="1.9"/>
	<circle class="st2" cx="473.8" cy="110.3" r="1"/>
	<circle class="st2" cx="470.3" cy="112.6" r="1.3"/>
	<circle class="st2" cx="465.5" cy="112.9" r="1.6"/>
	<circle class="st2" cx="459.4" cy="110.6" r="2.6"/>
	<circle class="st2" cx="456.2" cy="106.1" r="1.3"/>
	<circle class="st2" cx="455.2" cy="101.9" r="1.6"/>
	<circle class="st2" cx="456.8" cy="95.8" r="2.6"/>
	<circle class="st2" cx="460.7" cy="92" r="1.9"/>
</g>
</svg>
