<?xml version="1.0" encoding="utf-8"?>
<!-- Generator: Adobe Illustrator 21.0.0, SVG Export Plug-In . SVG Version: 6.00 Build 0)  -->
<svg version="1.1" id="Layer_1" xmlns="http://www.w3.org/2000/svg" xmlns:xlink="http://www.w3.org/1999/xlink" x="0px" y="0px"
	 viewBox="0 0 47 67.2" style="" xml:space="preserve">
<style type="text/css">
	.st0{fill:#E84E0F;}
</style>
<title>graphdb-logo-no-text</title>
	<g>
	<path class="st0" d="M39.3,27.8c4.3,0.9,7,5,6.1,9.3c-0.9,4.3-5,7-9.3,6.1c-4.2-0.9-7-5-6.2-9.2c0.8-4.2,4.9-7,9.1-6.2
		C39.2,27.7,39.2,27.7,39.3,27.8"/>
	<path class="st0" d="M23,40.3c2.5,0.6,4.1,3,3.7,5.5c-0.5,2.5-3,4.1-5.5,3.6c-2.5-0.5-4.1-2.9-3.7-5.5C18.1,41.4,20.5,39.8,23,40.3
		"/>
	<path class="st0" d="M29.4,18c1.7,0.4,2.8,2,2.5,3.7c-0.4,1.7-2,2.8-3.7,2.5c-1.7-0.4-2.8-2-2.5-3.7c0,0,0,0,0,0
		C26,18.8,27.7,17.7,29.4,18C29.4,18,29.4,18,29.4,18"/>
	<path class="st0" d="M23.9,1.6c3.2,2.5,3.8,7,1.3,10.3s-7,3.8-10.3,1.3c-3.2-2.5-3.8-7-1.3-10.2C16-0.2,20.6-0.8,23.9,1.6
		C23.8,1.6,23.8,1.6,23.9,1.6"/>
	<path class="st0" d="M12.3,49.4c2.7,2.8,2.6,7.2-0.2,9.8c-2.8,2.7-7.2,2.6-9.8-0.2c-2.7-2.8-2.6-7.2,0.2-9.8c0,0,0,0,0,0
		C5.3,46.5,9.6,46.6,12.3,49.4"/>
</g>
</svg>
